<svg width="109" height="107" viewBox="0 0 109 107" fill="none" xmlns="http://www.w3.org/2000/svg">
<mask id="mask0" mask-type="alpha" maskUnits="userSpaceOnUse" x="0" y="0" width="109" height="107">
<rect width="109" height="107" rx="12.9803" fill="#68BD4B"/>
</mask>
<g mask="url(#mask0)">
<g opacity="0.16">
<path d="M99.0167 17.9735C100.158 17.9735 101.084 17.0818 101.084 15.9819C101.084 14.8819 100.158 13.9902 99.0167 13.9902C97.8748 13.9902 96.9492 14.8819 96.9492 15.9819C96.9492 17.0818 97.8748 17.9735 99.0167 17.9735Z" fill="#056CB1"/>
<path d="M82.2628 34.1123C83.4046 34.1123 84.3302 33.2206 84.3302 32.1206C84.3302 31.0206 83.4046 30.1289 82.2628 30.1289C81.1209 30.1289 80.1953 31.0206 80.1953 32.1206C80.1953 33.2206 81.1209 34.1123 82.2628 34.1123Z" fill="#056CB1"/>
<path d="M99.0167 34.1123C100.158 34.1123 101.084 33.2206 101.084 32.1206C101.084 31.0206 100.158 30.1289 99.0167 30.1289C97.8748 30.1289 96.9492 31.0206 96.9492 32.1206C96.9492 33.2206 97.8748 34.1123 99.0167 34.1123Z" fill="#056CB1"/>
<path d="M65.4385 50.2549C66.5804 50.2549 67.506 49.3631 67.506 48.2632C67.506 47.1632 66.5804 46.2715 65.4385 46.2715C64.2967 46.2715 63.3711 47.1632 63.3711 48.2632C63.3711 49.3631 64.2967 50.2549 65.4385 50.2549Z" fill="#056CB1"/>
<path d="M82.2628 50.2549C83.4046 50.2549 84.3302 49.3631 84.3302 48.2632C84.3302 47.1632 83.4046 46.2715 82.2628 46.2715C81.1209 46.2715 80.1953 47.1632 80.1953 48.2632C80.1953 49.3631 81.1209 50.2549 82.2628 50.2549Z" fill="#056CB1"/>
<path d="M99.0167 50.2549C100.158 50.2549 101.084 49.3631 101.084 48.2632C101.084 47.1632 100.158 46.2715 99.0167 46.2715C97.8748 46.2715 96.9492 47.1632 96.9492 48.2632C96.9492 49.3631 97.8748 50.2549 99.0167 50.2549Z" fill="#056CB1"/>
<path d="M48.6846 66.3913C49.8264 66.3913 50.752 65.4996 50.752 64.3997C50.752 63.2998 49.8264 62.4082 48.6846 62.4082C47.5428 62.4082 46.6172 63.2998 46.6172 64.3997C46.6172 65.4996 47.5428 66.3913 48.6846 66.3913Z" fill="#056CB1"/>
<path d="M65.4385 66.3913C66.5804 66.3913 67.506 65.4996 67.506 64.3997C67.506 63.2998 66.5804 62.4082 65.4385 62.4082C64.2967 62.4082 63.3711 63.2998 63.3711 64.3997C63.3711 65.4996 64.2967 66.3913 65.4385 66.3913Z" fill="#056CB1"/>
<path d="M82.2628 66.3914C83.4046 66.3914 84.3302 65.4997 84.3302 64.3998C84.3302 63.2999 83.4046 62.4082 82.2628 62.4082C81.1209 62.4082 80.1953 63.2999 80.1953 64.3998C80.1953 65.4997 81.1209 66.3914 82.2628 66.3914Z" fill="#056CB1"/>
<path d="M99.0167 66.3914C100.158 66.3914 101.084 65.4997 101.084 64.3998C101.084 63.2999 100.158 62.4082 99.0167 62.4082C97.8748 62.4082 96.9492 63.2999 96.9492 64.3998C96.9492 65.4997 97.8748 66.3914 99.0167 66.3914Z" fill="#056CB1"/>
<path d="M31.9268 82.6002C33.0686 82.6002 33.9943 81.7085 33.9943 80.6087C33.9943 79.5088 33.0686 78.6172 31.9268 78.6172C30.785 78.6172 29.8594 79.5088 29.8594 80.6087C29.8594 81.7085 30.785 82.6002 31.9268 82.6002Z" fill="#056CB1"/>
<path d="M48.6846 82.6002C49.8264 82.6002 50.752 81.7085 50.752 80.6087C50.752 79.5088 49.8264 78.6172 48.6846 78.6172C47.5428 78.6172 46.6172 79.5088 46.6172 80.6087C46.6172 81.7085 47.5428 82.6002 48.6846 82.6002Z" fill="#056CB1"/>
<path d="M65.4385 82.6002C66.5804 82.6002 67.506 81.7085 67.506 80.6087C67.506 79.5088 66.5804 78.6172 65.4385 78.6172C64.2967 78.6172 63.3711 79.5088 63.3711 80.6087C63.3711 81.7085 64.2967 82.6002 65.4385 82.6002Z" fill="#056CB1"/>
<path d="M82.2628 82.6002C83.4046 82.6002 84.3302 81.7085 84.3302 80.6087C84.3302 79.5088 83.4046 78.6172 82.2628 78.6172C81.1209 78.6172 80.1953 79.5088 80.1953 80.6087C80.1953 81.7085 81.1209 82.6002 82.2628 82.6002Z" fill="#056CB1"/>
<path d="M99.0167 82.6002C100.158 82.6002 101.084 81.7085 101.084 80.6087C101.084 79.5088 100.158 78.6172 99.0167 78.6172C97.8748 78.6172 96.9492 79.5088 96.9492 80.6087C96.9492 81.7085 97.8748 82.6002 99.0167 82.6002Z" fill="#056CB1"/>
<path d="M15.1768 98.7393C16.3186 98.7393 17.2443 97.8476 17.2443 96.7476C17.2443 95.6476 16.3186 94.7559 15.1768 94.7559C14.035 94.7559 13.1094 95.6476 13.1094 96.7476C13.1094 97.8476 14.035 98.7393 15.1768 98.7393Z" fill="#056CB1"/>
<path d="M31.9268 98.7374C33.0686 98.7374 33.9943 97.8456 33.9943 96.7456C33.9943 95.6456 33.0686 94.7539 31.9268 94.7539C30.785 94.7539 29.8594 95.6456 29.8594 96.7456C29.8594 97.8456 30.785 98.7374 31.9268 98.7374Z" fill="#056CB1"/>
<path d="M48.6846 98.7374C49.8264 98.7374 50.752 97.8456 50.752 96.7456C50.752 95.6456 49.8264 94.7539 48.6846 94.7539C47.5428 94.7539 46.6172 95.6456 46.6172 96.7456C46.6172 97.8456 47.5428 98.7374 48.6846 98.7374Z" fill="#056CB1"/>
<path d="M65.4385 98.7374C66.5804 98.7374 67.506 97.8456 67.506 96.7456C67.506 95.6456 66.5804 94.7539 65.4385 94.7539C64.2967 94.7539 63.3711 95.6456 63.3711 96.7456C63.3711 97.8456 64.2967 98.7374 65.4385 98.7374Z" fill="#056CB1"/>
<path d="M82.2628 98.7374C83.4046 98.7374 84.3302 97.8456 84.3302 96.7456C84.3302 95.6456 83.4046 94.7539 82.2628 94.7539C81.1209 94.7539 80.1953 95.6456 80.1953 96.7456C80.1953 97.8456 81.1209 98.7374 82.2628 98.7374Z" fill="#056CB1"/>
<path d="M99.0167 98.7374C100.158 98.7374 101.084 97.8456 101.084 96.7456C101.084 95.6456 100.158 94.7539 99.0167 94.7539C97.8748 94.7539 96.9492 95.6456 96.9492 96.7456C96.9492 97.8456 97.8748 98.7374 99.0167 98.7374Z" fill="#056CB1"/>
</g>
</g>
</svg>
